{
  "asset": {
    "version": "2.0"
  },
  "textures": [
    {
      "source": 0
    }
  ],
  "images": [
    {
      "uri": "image.png"
    }
  ],
  "materials": [
    {
      "pbrMetallicRoughness": {
        "baseColorTexture": {
          "index": 0
        }
      }
    }
  ],
  "meshes": [
    {
      "primitives": [
        {
          "attributes": {
            "POSITION": 0,
            "TEXCOORD_0": 1
          },
          "indices": 2,
          "material": 0
        }
      ]
    }
  ],
  "accessors": [
    {
      "bufferView": 0,
      "componentType": 5126,
      "count": 4,
      "type": "VEC3",
      "max": [1.0, 1.0, 0.0],
      "min": [-1.0, -1.0, 0.0]
    },
    {
      "bufferView": 1,
      "componentType": 5126,
      "count": 4,
      "type": "VEC2"
    },
    {
      "bufferView": 2,
      "componentType": 5123,
      "count": 6,
      "type": "SCALAR"
    }
  ],
  "bufferViews": [
    {
      "buffer": 0,
      "byteOffset": 0,
      "byteLength": 48
    },
    {
      "buffer": 0,
      "byteOffset": 48,
      "byteLength": 32
    },
    {
      "buffer": 0,
      "byteOffset": 80,
      "byteLength": 12
    }
  ],
  "buffers": [
    {
      "byteLength": 92,
      "uri": "data:application/octet-stream;base64,"
    }
  ],
  "nodes": [
    {
      "mesh": 0
    }
  ],
  "scenes": [
    {
      "nodes": [0]
    }
  ],
  "scene": 0
}
