{
  "asset": {
    "version": "2.0"
  },
  "extensionsUsed": [
    "MAXAR_mesh_variants"
  ],
  "extensions": {
    "MAXAR_mesh_variants": {
      "default": 0,
      "variants": [
        {
          "name": "Pristine"
        },
        {
          "name": "Damaged"
        },
        {
          "name": "Destroyed"
        }
      ]
    }
  },
  "scene": 0,
  "scenes": [
    {
      "nodes": [0, 1, 2]
    }
  ],
  "nodes": [
    {
      "name": "Car Body",
      "mesh": 0,
      "extensions": {
        "MAXAR_mesh_variants": {
          "mappings": [
            {
              "mesh": 0,
              "variants": [0]
            },
            {
              "mesh": 1,
              "variants": [1]
            },
            {
              "mesh": 2,
              "variants": [2]
            }
          ]
        }
      }
    },
    {
      "name": "Car Wheels",
      "mesh": 3,
      "extensions": {
        "MAXAR_mesh_variants": {
          "mappings": [
            {
              "mesh": 3,
              "variants": [0]
            },
            {
              "mesh": 4,
              "variants": [1]
            },
            {
              "mesh": 5,
              "variants": [2]
            }
          ]
        }
      }
    },
    {
      "name": "Car Lights",
      "mesh": 6,
      "extensions": {
        "MAXAR_mesh_variants": {
          "mappings": [
            {
              "mesh": 6,
              "variants": [0]
            },
            {
              "mesh": 7,
              "variants": [1, 2],
              "name": "Broken lights"
            }
          ]
        }
      }
    }
  ],
  "meshes": [
    {
      "name": "Body Pristine",
      "primitives": [
        {
          "attributes": {
            "POSITION": 0
          },
          "indices": 1
        }
      ]
    },
    {
      "name": "Body Damaged",
      "primitives": [
        {
          "attributes": {
            "POSITION": 0
          },
          "indices": 1
        }
      ]
    },
    {
      "name": "Body Destroyed",
      "primitives": [
        {
          "attributes": {
            "POSITION": 0
          },
          "indices": 1
        }
      ]
    },
    {
      "name": "Wheels Pristine",
      "primitives": [
        {
          "attributes": {
            "POSITION": 0
          },
          "indices": 1
        }
      ]
    },
    {
      "name": "Wheels Damaged",
      "primitives": [
        {
          "attributes": {
            "POSITION": 0
          },
          "indices": 1
        }
      ]
    },
    {
      "name": "Wheels Destroyed",
      "primitives": [
        {
          "attributes": {
            "POSITION": 0
          },
          "indices": 1
        }
      ]
    },
    {
      "name": "Lights Pristine",
      "primitives": [
        {
          "attributes": {
            "POSITION": 0
          },
          "indices": 1
        }
      ]
    },
    {
      "name": "Lights Broken",
      "primitives": [
        {
          "attributes": {
            "POSITION": 0
          },
          "indices": 1
        }
      ]
    }
  ],
  "accessors": [
    {
      "bufferView": 0,
      "componentType": 5126,
      "count": 3,
      "type": "VEC3",
      "max": [1.0, 1.0, 0.0],
      "min": [-1.0, -1.0, 0.0]
    },
    {
      "bufferView": 1,
      "componentType": 5123,
      "count": 3,
      "type": "SCALAR"
    }
  ],
  "bufferViews": [
    {
      "buffer": 0,
      "byteOffset": 0,
      "byteLength": 36
    },
    {
      "buffer": 0,
      "byteOffset": 36,
      "byteLength": 6
    }
  ],
  "buffers": [
    {
      "byteLength": 42,
      "uri": "data:application/octet-stream;base64,"
    }
  ]
}
